<?xml version="1.0" encoding="UTF-8"?>
<svg xmlns="http://www.w3.org/2000/svg" viewBox="0 0 100 100">
  <title>ToolShare AI Logo - Transparent (White)</title>
  <g fill="#FFFFFF">
    <rect x="16" y="30" width="68" height="46" rx="8"/>
    <rect x="34" y="22" width="32" height="10" rx="4"/>
    <path d="M38 42 a8 8 0 0 1 7 -7 l1 4 -4 4 4 4 -1 4 a8 8 0 0 1 -7 -7 v10 l-7 10 a3 3 0 0 0 5 3 l7 -10 z"/>
    <path d="M56 44 h16 a6 6 0 0 1 6 6 v2 a6 6 0 0 1 -6 6 h-5 v6 a3 3 0 0 1 -3 3 h-3 a3 3 0 0 1 -3 -3 v-14 h-2 a3 3 0 0 1 -3 -3 v0 a3 3 0 0 1 3 -3 z"/>
    <rect x="66" y="52" width="3" height="4" rx="1"/>
    <rect x="78" y="50" width="6" height="2" rx="1"/>
  </g>
</svg>
